<svg xmlns="http://www.w3.org/2000/svg" viewBox="4 4 7.875 7.875" width="36" height="36">
  <path d="M10.019 7.277h-0.155v-1.041c-0.014-0.886-0.746-1.786-1.913-1.786s-1.927 0.9-1.926 1.786v1.041h-0.141c-0.253 0-0.478 0.197-0.478 0.463v3.235c0 0.253 0.197 0.45 0.436 0.45h4.191c0.239 0 0.45-0.169 0.45-0.45v-3.235c0-0.267-0.197-0.464-0.464-0.463z m-1.406 1.026l-0.38 0.098v1.885l0.366 0.113v0.252h-1.309v-0.267l0.352-0.098 0.014-1.885-0.366-0.098v-0.239h1.323v0.239z m0.534-1.026h-2.405v-0.985c0-0.577 0.478-1.153 1.195-1.153 0.689 0 1.21 0.478 1.21 1.153" fill="#000000" />
</svg>