<svg xmlns="http://www.w3.org/2000/svg" viewBox="4 4 9 9" width="36" height="36">
  <path d="M10.989 7.769h-0.239v-1.252c0-1.111-0.914-2.081-2.137-2.095h-0.099c-1.223 0-2.264 0.97-2.264 2.109v0.506c0 0.056 0.043 0.113 0.084 0.113h0.676c0.043 0 0.084-0.043 0.084-0.099v-0.267l-0.31 0.029v-0.31l0.31-0.042c0.056-0.647 0.604-1.237 1.392-1.238 0.801 0 1.406 0.506 1.407 1.308l0.013 1.209h-3.839c-0.267 0-0.549 0.211-0.548 0.535v3.825c0 0.281 0.211 0.478 0.478 0.478h4.978c0.281 0 0.506-0.197 0.506-0.492v-3.811c0-0.296-0.211-0.506-0.492-0.506z m-1.702 1.153l-0.435 0.098v2.236l0.408 0.127v0.31h-1.52v-0.31l0.409-0.113 0.014-2.236-0.423-0.112v-0.282h1.547v0.282z" fill="#000000" />
</svg>